<?xml version="1.0" standalone="no"?><!DOCTYPE svg PUBLIC "-//W3C//DTD SVG 1.1//EN" "http://www.w3.org/Graphics/SVG/1.1/DTD/svg11.dtd"><svg t="1663298788204" class="icon" viewBox="0 0 1024 1024" version="1.1" xmlns="http://www.w3.org/2000/svg" p-id="2815" xmlns:xlink="http://www.w3.org/1999/xlink" width="200" height="200"><path d="M480.128 351.872c16.768 0 32.704 2.816 48.192 6.848l50.944-50.88A256 256 0 1 0 716.16 444.736l-50.944 50.88c4.032 15.488 6.848 31.488 6.848 48.256a192 192 0 1 1-191.936-192z" p-id="2816"></path><path d="M839.808 410.432c15.424 41.6 24.32 86.464 24.32 133.44a384 384 0 0 1-768 0 384 384 0 0 1 384-384c46.976 0 91.84 8.896 133.44 24.32l49.216-49.152a446.528 446.528 0 0 0-182.656-39.168 448 448 0 1 0 448 448 446.976 446.976 0 0 0-39.104-182.592l-49.216 49.152z" p-id="2817"></path><path d="M494.592 482.752c-4.8-1.088-9.344-2.88-14.464-2.88a64 64 0 1 0 0 128 64 64 0 0 0 64-64c0-5.76-1.856-10.88-3.264-16.192l208.384-208.32h82.624l160-159.488h-96l-0.512 0.512a32.256 32.256 0 0 0-9.344-23.488 32.32 32.32 0 0 0-21.952-9.344V32.128l-159.488 160v80.64L494.592 482.752z" p-id="2818"></path></svg>